<?xml version="1.0" standalone="no"?>
<!DOCTYPE svg PUBLIC "-//W3C//DTD SVG 20010904//EN"
 "http://www.w3.org/TR/2001/REC-SVG-20010904/DTD/svg10.dtd">
<svg version="1.0" xmlns="http://www.w3.org/2000/svg"
 width="512.000000pt" height="512.000000pt" viewBox="0 0 512.000000 512.000000"
 preserveAspectRatio="xMidYMid meet">
<metadata>
Created by potrace 1.14, written by Peter Selinger 2001-2017
</metadata>
<g transform="translate(0.000000,512.000000) scale(0.100000,-0.100000)"
fill="#000000" stroke="none">
<path d="M0 2560 l0 -2560 2560 0 2560 0 0 2560 0 2560 -2560 0 -2560 0 0
-2560z m3100 1087 c0 -6 -870 -2260 -874 -2264 -2 -2 -51 -2 -108 -1 l-106 3
417 1085 c229 597 425 1106 435 1133 l18 47 109 0 c60 0 109 -2 109 -3z m1158
-47 c95 -12 280 -58 365 -90 l57 -21 0 -145 c0 -79 -4 -144 -9 -144 -5 0 -36
18 -69 40 -217 145 -577 198 -789 118 -79 -30 -167 -116 -183 -178 -17 -64 -7
-159 21 -211 48 -86 128 -120 399 -169 350 -63 471 -106 578 -205 71 -66 107
-140 123 -252 33 -227 -89 -439 -313 -547 -132 -64 -189 -77 -365 -83 -234 -9
-413 21 -625 102 l-98 38 0 153 c0 103 4 154 11 154 6 0 39 -20 74 -45 304
-217 779 -256 974 -79 67 60 86 104 86 204 0 186 -75 237 -440 301 -239 42
-328 65 -423 110 -149 72 -239 191 -264 351 -43 281 148 520 472 588 98 21
291 26 418 10z m-2238 -135 l0 -105 -460 0 -460 0 0 -260 0 -260 395 0 395 0
0 -105 0 -105 -395 0 -395 0 0 -440 0 -440 -125 0 -125 0 0 910 0 910 585 0
585 0 0 -105z"/>
</g>
</svg>
